<mxfile host="app.diagrams.net" modified="2023-07-16T06:53:21.609Z" agent="Mozilla/5.0 (Windows NT 10.0; Win64; x64) AppleWebKit/537.36 (KHTML, like Gecko) Chrome/93.0.4577.63 Safari/537.36 Edg/93.0.961.47" etag="6jIvYPyP9DeKrTrFeWbS" version="21.6.2" type="github">
  <diagram name="第 1 页" id="31zTWE6sgCgxa1R8bSPT">
    <mxGraphModel dx="1050" dy="615" grid="1" gridSize="10" guides="1" tooltips="1" connect="1" arrows="1" fold="1" page="1" pageScale="1" pageWidth="827" pageHeight="1169" math="0" shadow="0">
      <root>
        <mxCell id="0" />
        <mxCell id="1" parent="0" />
        <mxCell id="gFr5kVjGjiV4KIFlTf8y-3" value="算法库" style="shape=cylinder3;whiteSpace=wrap;html=1;boundedLbl=1;backgroundOutline=1;size=15;" vertex="1" parent="1">
          <mxGeometry x="420" y="100" width="210" height="180" as="geometry" />
        </mxCell>
        <mxCell id="gFr5kVjGjiV4KIFlTf8y-5" value="拓扑元素名称数据结构" style="swimlane;whiteSpace=wrap;html=1;" vertex="1" parent="1">
          <mxGeometry x="100" y="350" width="270" height="200" as="geometry" />
        </mxCell>
        <mxCell id="gFr5kVjGjiV4KIFlTf8y-10" value="拓扑实体点索引容器&lt;br&gt;拓扑实体边索引容器&lt;br&gt;拓扑实体面索引容器" style="text;html=1;strokeColor=none;fillColor=none;align=center;verticalAlign=middle;whiteSpace=wrap;rounded=0;" vertex="1" parent="gFr5kVjGjiV4KIFlTf8y-5">
          <mxGeometry x="70" y="40" width="120" height="60" as="geometry" />
        </mxCell>
        <mxCell id="gFr5kVjGjiV4KIFlTf8y-11" value="拓扑元素索引名-原始名双向map容器" style="text;html=1;strokeColor=none;fillColor=none;align=center;verticalAlign=middle;whiteSpace=wrap;rounded=0;" vertex="1" parent="gFr5kVjGjiV4KIFlTf8y-5">
          <mxGeometry x="30" y="120" width="210" height="30" as="geometry" />
        </mxCell>
        <mxCell id="gFr5kVjGjiV4KIFlTf8y-13" value="" style="shape=flexArrow;endArrow=classic;html=1;rounded=0;exitX=0;exitY=1;exitDx=0;exitDy=-15;exitPerimeter=0;entryX=0.5;entryY=0;entryDx=0;entryDy=0;" edge="1" parent="1" source="gFr5kVjGjiV4KIFlTf8y-3" target="gFr5kVjGjiV4KIFlTf8y-5">
          <mxGeometry width="50" height="50" relative="1" as="geometry">
            <mxPoint x="460" y="360" as="sourcePoint" />
            <mxPoint x="510" y="310" as="targetPoint" />
          </mxGeometry>
        </mxCell>
        <mxCell id="gFr5kVjGjiV4KIFlTf8y-14" value="原始名生成算法调用" style="text;html=1;align=center;verticalAlign=middle;resizable=0;points=[];autosize=1;strokeColor=none;fillColor=none;" vertex="1" parent="1">
          <mxGeometry x="360" y="290" width="130" height="30" as="geometry" />
        </mxCell>
        <mxCell id="gFr5kVjGjiV4KIFlTf8y-16" value="引用名生成算法调用" style="text;html=1;align=center;verticalAlign=middle;resizable=0;points=[];autosize=1;strokeColor=none;fillColor=none;" vertex="1" parent="1">
          <mxGeometry x="540" y="290" width="130" height="30" as="geometry" />
        </mxCell>
        <mxCell id="gFr5kVjGjiV4KIFlTf8y-17" value="" style="shape=flexArrow;endArrow=classic;html=1;rounded=0;entryX=0.5;entryY=0;entryDx=0;entryDy=0;" edge="1" parent="1" target="gFr5kVjGjiV4KIFlTf8y-34">
          <mxGeometry width="50" height="50" relative="1" as="geometry">
            <mxPoint x="630" y="266" as="sourcePoint" />
            <mxPoint x="760" y="340" as="targetPoint" />
          </mxGeometry>
        </mxCell>
        <mxCell id="gFr5kVjGjiV4KIFlTf8y-18" value="" style="shape=flexArrow;endArrow=classic;startArrow=classic;html=1;rounded=0;entryX=0.5;entryY=1;entryDx=0;entryDy=0;entryPerimeter=0;" edge="1" parent="1" target="gFr5kVjGjiV4KIFlTf8y-3">
          <mxGeometry width="100" height="100" relative="1" as="geometry">
            <mxPoint x="525" y="350" as="sourcePoint" />
            <mxPoint x="560" y="340" as="targetPoint" />
          </mxGeometry>
        </mxCell>
        <mxCell id="gFr5kVjGjiV4KIFlTf8y-23" value="" style="swimlane;startSize=0;" vertex="1" parent="1">
          <mxGeometry x="400" y="350" width="260" height="200" as="geometry" />
        </mxCell>
        <mxCell id="gFr5kVjGjiV4KIFlTf8y-24" value="拓扑元素引用名" style="text;html=1;align=center;verticalAlign=middle;resizable=0;points=[];autosize=1;strokeColor=none;fillColor=none;" vertex="1" parent="gFr5kVjGjiV4KIFlTf8y-23">
          <mxGeometry x="10" y="55" width="110" height="30" as="geometry" />
        </mxCell>
        <mxCell id="gFr5kVjGjiV4KIFlTf8y-25" value="特征信息如拉伸方向、&lt;br&gt;引用的拓扑元素等" style="text;html=1;align=center;verticalAlign=middle;resizable=0;points=[];autosize=1;strokeColor=none;fillColor=none;" vertex="1" parent="gFr5kVjGjiV4KIFlTf8y-23">
          <mxGeometry x="120" y="50" width="140" height="40" as="geometry" />
        </mxCell>
        <mxCell id="gFr5kVjGjiV4KIFlTf8y-30" value="" style="shape=flexArrow;endArrow=classic;html=1;rounded=0;exitX=0.25;exitY=0;exitDx=0;exitDy=0;" edge="1" parent="gFr5kVjGjiV4KIFlTf8y-23" source="gFr5kVjGjiV4KIFlTf8y-23" target="gFr5kVjGjiV4KIFlTf8y-24">
          <mxGeometry width="50" height="50" relative="1" as="geometry">
            <mxPoint x="110" y="160" as="sourcePoint" />
            <mxPoint x="63" y="60" as="targetPoint" />
          </mxGeometry>
        </mxCell>
        <mxCell id="gFr5kVjGjiV4KIFlTf8y-31" value="" style="shape=flexArrow;endArrow=classic;html=1;rounded=0;entryX=0.75;entryY=0;entryDx=0;entryDy=0;" edge="1" parent="gFr5kVjGjiV4KIFlTf8y-23" target="gFr5kVjGjiV4KIFlTf8y-23">
          <mxGeometry width="50" height="50" relative="1" as="geometry">
            <mxPoint x="195" y="50" as="sourcePoint" />
            <mxPoint x="170" y="120" as="targetPoint" />
          </mxGeometry>
        </mxCell>
        <mxCell id="gFr5kVjGjiV4KIFlTf8y-29" value="引用名辨识算法调用" style="text;html=1;align=center;verticalAlign=middle;resizable=0;points=[];autosize=1;strokeColor=none;fillColor=none;" vertex="1" parent="1">
          <mxGeometry x="697" y="270" width="130" height="30" as="geometry" />
        </mxCell>
        <mxCell id="gFr5kVjGjiV4KIFlTf8y-34" value="" style="swimlane;startSize=0;" vertex="1" parent="1">
          <mxGeometry x="697" y="350" width="200" height="200" as="geometry" />
        </mxCell>
        <mxCell id="gFr5kVjGjiV4KIFlTf8y-35" value="拓扑元素引用名" style="text;html=1;strokeColor=none;fillColor=none;align=center;verticalAlign=middle;whiteSpace=wrap;rounded=0;" vertex="1" parent="gFr5kVjGjiV4KIFlTf8y-34">
          <mxGeometry x="23" y="50" width="87" height="20" as="geometry" />
        </mxCell>
        <mxCell id="gFr5kVjGjiV4KIFlTf8y-36" value="拓扑元素" style="text;html=1;strokeColor=none;fillColor=none;align=center;verticalAlign=middle;whiteSpace=wrap;rounded=0;" vertex="1" parent="gFr5kVjGjiV4KIFlTf8y-34">
          <mxGeometry x="130" y="50" width="60" height="30" as="geometry" />
        </mxCell>
        <mxCell id="gFr5kVjGjiV4KIFlTf8y-37" value="" style="shape=flexArrow;endArrow=classic;html=1;rounded=0;exitX=0.25;exitY=0;exitDx=0;exitDy=0;" edge="1" parent="gFr5kVjGjiV4KIFlTf8y-34">
          <mxGeometry width="50" height="50" relative="1" as="geometry">
            <mxPoint x="159.5" as="sourcePoint" />
            <mxPoint x="159.5" y="55" as="targetPoint" />
          </mxGeometry>
        </mxCell>
        <mxCell id="gFr5kVjGjiV4KIFlTf8y-38" value="" style="shape=flexArrow;endArrow=classic;html=1;rounded=0;entryX=0.75;entryY=0;entryDx=0;entryDy=0;" edge="1" parent="gFr5kVjGjiV4KIFlTf8y-34">
          <mxGeometry width="50" height="50" relative="1" as="geometry">
            <mxPoint x="53" y="50" as="sourcePoint" />
            <mxPoint x="53" as="targetPoint" />
          </mxGeometry>
        </mxCell>
        <mxCell id="gFr5kVjGjiV4KIFlTf8y-41" style="edgeStyle=orthogonalEdgeStyle;rounded=0;orthogonalLoop=1;jettySize=auto;html=1;entryX=0;entryY=0.5;entryDx=0;entryDy=0;" edge="1" parent="1" source="gFr5kVjGjiV4KIFlTf8y-40" target="gFr5kVjGjiV4KIFlTf8y-42">
          <mxGeometry relative="1" as="geometry">
            <mxPoint x="240" y="670" as="targetPoint" />
          </mxGeometry>
        </mxCell>
        <mxCell id="gFr5kVjGjiV4KIFlTf8y-40" value="开始" style="rounded=1;whiteSpace=wrap;html=1;" vertex="1" parent="1">
          <mxGeometry x="50" y="640" width="120" height="60" as="geometry" />
        </mxCell>
        <mxCell id="gFr5kVjGjiV4KIFlTf8y-43" style="edgeStyle=orthogonalEdgeStyle;rounded=0;orthogonalLoop=1;jettySize=auto;html=1;entryX=0;entryY=0.5;entryDx=0;entryDy=0;" edge="1" parent="1" source="gFr5kVjGjiV4KIFlTf8y-42" target="gFr5kVjGjiV4KIFlTf8y-44">
          <mxGeometry relative="1" as="geometry">
            <mxPoint x="460" y="670" as="targetPoint" />
          </mxGeometry>
        </mxCell>
        <mxCell id="gFr5kVjGjiV4KIFlTf8y-42" value="通过双向map由原始名获得索引名" style="rounded=0;whiteSpace=wrap;html=1;" vertex="1" parent="1">
          <mxGeometry x="210" y="640" width="120" height="60" as="geometry" />
        </mxCell>
        <mxCell id="gFr5kVjGjiV4KIFlTf8y-46" style="edgeStyle=orthogonalEdgeStyle;rounded=0;orthogonalLoop=1;jettySize=auto;html=1;entryX=0;entryY=0.5;entryDx=0;entryDy=0;" edge="1" parent="1" source="gFr5kVjGjiV4KIFlTf8y-44" target="gFr5kVjGjiV4KIFlTf8y-45">
          <mxGeometry relative="1" as="geometry" />
        </mxCell>
        <mxCell id="gFr5kVjGjiV4KIFlTf8y-44" value="通过索引容器由索引名获得拓扑元素" style="rounded=0;whiteSpace=wrap;html=1;" vertex="1" parent="1">
          <mxGeometry x="360" y="640" width="120" height="60" as="geometry" />
        </mxCell>
        <mxCell id="gFr5kVjGjiV4KIFlTf8y-45" value="结束" style="rounded=1;whiteSpace=wrap;html=1;" vertex="1" parent="1">
          <mxGeometry x="520" y="640" width="120" height="60" as="geometry" />
        </mxCell>
        <mxCell id="gFr5kVjGjiV4KIFlTf8y-47" style="edgeStyle=orthogonalEdgeStyle;rounded=0;orthogonalLoop=1;jettySize=auto;html=1;entryX=0;entryY=0.5;entryDx=0;entryDy=0;" edge="1" parent="1" source="gFr5kVjGjiV4KIFlTf8y-48" target="gFr5kVjGjiV4KIFlTf8y-50">
          <mxGeometry relative="1" as="geometry">
            <mxPoint x="230" y="790" as="targetPoint" />
          </mxGeometry>
        </mxCell>
        <mxCell id="gFr5kVjGjiV4KIFlTf8y-48" value="开始" style="rounded=1;whiteSpace=wrap;html=1;" vertex="1" parent="1">
          <mxGeometry x="40" y="760" width="120" height="60" as="geometry" />
        </mxCell>
        <mxCell id="gFr5kVjGjiV4KIFlTf8y-49" style="edgeStyle=orthogonalEdgeStyle;rounded=0;orthogonalLoop=1;jettySize=auto;html=1;entryX=0;entryY=0.5;entryDx=0;entryDy=0;" edge="1" parent="1" source="gFr5kVjGjiV4KIFlTf8y-50" target="gFr5kVjGjiV4KIFlTf8y-52">
          <mxGeometry relative="1" as="geometry">
            <mxPoint x="450" y="790" as="targetPoint" />
          </mxGeometry>
        </mxCell>
        <mxCell id="gFr5kVjGjiV4KIFlTf8y-50" value="根据拓扑元素获得索引名" style="rounded=0;whiteSpace=wrap;html=1;" vertex="1" parent="1">
          <mxGeometry x="210" y="760" width="120" height="60" as="geometry" />
        </mxCell>
        <mxCell id="gFr5kVjGjiV4KIFlTf8y-51" style="edgeStyle=orthogonalEdgeStyle;rounded=0;orthogonalLoop=1;jettySize=auto;html=1;entryX=0;entryY=0.5;entryDx=0;entryDy=0;" edge="1" parent="1" source="gFr5kVjGjiV4KIFlTf8y-52" target="gFr5kVjGjiV4KIFlTf8y-53">
          <mxGeometry relative="1" as="geometry" />
        </mxCell>
        <mxCell id="gFr5kVjGjiV4KIFlTf8y-52" value="通过双向map由索引名获得原始名" style="rounded=0;whiteSpace=wrap;html=1;" vertex="1" parent="1">
          <mxGeometry x="360" y="760" width="120" height="60" as="geometry" />
        </mxCell>
        <mxCell id="gFr5kVjGjiV4KIFlTf8y-53" value="结束" style="rounded=1;whiteSpace=wrap;html=1;" vertex="1" parent="1">
          <mxGeometry x="520" y="760" width="120" height="60" as="geometry" />
        </mxCell>
      </root>
    </mxGraphModel>
  </diagram>
</mxfile>
